<?xml version="1.0" standalone="no"?>
<!DOCTYPE svg PUBLIC "-//W3C//DTD SVG 20010904//EN"
 "http://www.w3.org/TR/2001/REC-SVG-20010904/DTD/svg10.dtd">
<svg version="1.0" xmlns="http://www.w3.org/2000/svg"
 width="1200.000000pt" height="1200.000000pt" viewBox="0 0 1200.000000 1200.000000"
 preserveAspectRatio="xMidYMid meet">
<metadata>
Created by potrace 1.11, written by Peter Selinger 2001-2013
</metadata>
<g transform="translate(0.000000,1200.000000) scale(0.100000,-0.100000)"
fill="#000000" stroke="none">
<path d="M4475 8074 c-376 -51 -689 -206 -961 -478 -286 -286 -442 -618 -484
-1025 -7 -69 -10 -974 -10 -2750 l0 -2646 113 -62 c752 -415 1523 -646 2376
-713 173 -13 657 -13 832 0 999 77 1925 393 2747 938 1181 782 2041 1992 2385
3357 113 448 164 829 174 1300 14 685 -83 1323 -296 1950 l-47 140 -3365 1
c-2782 2 -3381 0 -3464 -12z m958 -1936 l678 -282 -3 -120 -3 -120 -555 -231
c-305 -126 -617 -256 -693 -287 l-138 -57 3 150 3 150 425 175 c234 97 449
185 477 196 29 11 51 24 48 28 -2 3 -218 94 -480 201 l-475 193 0 149 c0 138
1 149 18 143 9 -4 322 -134 695 -288z m2417 -1338 l0 -110 -776 0 -777 0 7 46
c3 26 6 75 6 110 l0 64 770 0 770 0 0 -110z"/>
</g>
</svg>
